<svg width="20" height="20" viewBox="0 0 20 20" fill="none" xmlns="http://www.w3.org/2000/svg">
<g clip-path="url(#clip0_1726_2550)">
<path d="M10.1401 10.2274H12.0062C12.0682 10.4574 12.2802 10.6234 12.5322 10.6234C12.8343 10.6234 13.0783 10.3874 13.0783 10.0854C13.0783 9.78337 12.8343 9.52936 12.5322 9.52936C12.2782 9.52936 12.0662 9.70937 12.0062 9.94538H10.1401V9.14533H11.0081C11.0081 9.14533 11.0801 9.15333 11.1241 9.11933C11.2021 9.05933 11.4022 8.86532 11.4022 8.86532L11.9502 8.31728C12.0262 8.35728 12.1102 8.38128 12.2022 8.38128C12.5042 8.38128 12.7502 8.13527 12.7502 7.83325C12.7502 7.53123 12.5062 7.28521 12.2022 7.28521C11.9002 7.28521 11.6562 7.52923 11.6562 7.83325C11.6562 7.94126 11.6882 8.04126 11.7422 8.12727L11.1041 8.76731C11.1041 8.76731 11.0241 8.84331 10.9941 8.85531C10.9761 8.86331 10.9281 8.86331 10.9281 8.86331H10.1461V8.52129V7.64524C10.5041 7.57923 10.7741 7.26521 10.7741 6.88919C10.7741 6.46316 10.4281 6.11914 10.0041 6.11914C9.57804 6.11914 9.23402 6.46316 9.23402 6.88919C9.23402 7.26521 9.50604 7.57923 9.86406 7.64524V8.86532C9.86406 8.86532 9.03401 8.86532 9.01401 8.85731C8.98201 8.84531 8.904 8.76931 8.904 8.76931L8.26396 8.12927C8.31796 8.04526 8.34997 7.94526 8.34997 7.83525C8.34997 7.53323 8.10595 7.28721 7.80193 7.28721C7.49991 7.28721 7.2539 7.53123 7.2539 7.83525C7.2539 8.13727 7.49791 8.38328 7.80193 8.38328C7.89394 8.38328 7.97794 8.35928 8.05395 8.31928L8.60198 8.86732C8.60198 8.86732 8.79999 9.06133 8.878 9.12133C8.922 9.15533 8.99401 9.14733 8.99401 9.14733H9.86206V9.94738H7.99594C7.93394 9.71137 7.72393 9.53136 7.46991 9.53136C7.16789 9.53136 6.92188 9.78537 6.92188 10.0874C6.92188 10.3894 7.16589 10.6254 7.46991 10.6254C7.72193 10.6254 7.93394 10.4594 7.99594 10.2294H9.86206V11.0095H8.99401C8.99401 11.0095 8.922 11.0015 8.878 11.0355C8.79999 11.0975 8.60198 11.2895 8.60198 11.2895L8.05395 11.8375C7.97794 11.7975 7.89394 11.7735 7.80193 11.7735C7.49991 11.7735 7.2539 12.0195 7.2539 12.3215C7.2539 12.6236 7.49791 12.8696 7.80193 12.8696C8.10395 12.8696 8.34997 12.6256 8.34997 12.3215C8.34997 12.2135 8.31796 12.1135 8.26396 12.0275L8.904 11.3875C8.904 11.3875 8.98201 11.3115 9.01401 11.2975C9.03201 11.2895 9.08001 11.2895 9.08001 11.2895H9.86406V12.5095C9.50604 12.5756 9.23402 12.8896 9.23402 13.2656C9.23402 13.6896 9.58004 14.0356 10.0041 14.0356C10.4281 14.0356 10.7741 13.6896 10.7741 13.2656C10.7741 12.8896 10.5021 12.5756 10.1461 12.5095V11.2895H10.9281C10.9281 11.2895 10.9761 11.2895 10.9941 11.2975C11.0261 11.3095 11.1041 11.3875 11.1041 11.3875L11.7422 12.0275C11.6882 12.1115 11.6562 12.2135 11.6562 12.3215C11.6562 12.6236 11.9002 12.8696 12.2022 12.8696C12.5042 12.8696 12.7502 12.6256 12.7502 12.3215C12.7502 12.0195 12.5062 11.7735 12.2022 11.7735C12.1102 11.7735 12.0262 11.7975 11.9502 11.8375L11.4022 11.2895C11.4022 11.2895 11.2021 11.0955 11.1241 11.0355C11.0801 11.0015 11.0081 11.0095 11.0081 11.0095H10.1401V10.5434V10.2274V10.2274ZM12.5322 9.80937C12.6802 9.80937 12.8002 9.92938 12.8002 10.0774C12.8002 10.2254 12.6802 10.3454 12.5322 10.3454C12.3842 10.3454 12.2642 10.2254 12.2642 10.0774C12.2642 9.92938 12.3862 9.80937 12.5322 9.80937ZM12.2002 7.56723C12.3482 7.56723 12.4682 7.68724 12.4682 7.83525C12.4682 7.98326 12.3482 8.10327 12.2002 8.10327C12.0522 8.10327 11.9322 7.98326 11.9322 7.83525C11.9322 7.68724 12.0522 7.56723 12.2002 7.56723ZM7.79793 8.10127C7.64992 8.10127 7.52991 7.98126 7.52991 7.83325C7.52991 7.68524 7.64992 7.56523 7.79793 7.56523C7.94594 7.56523 8.06595 7.68524 8.06595 7.83325C8.06595 7.98126 7.94594 8.10127 7.79793 8.10127ZM7.46391 10.3434C7.3159 10.3434 7.19589 10.2234 7.19589 10.0754C7.19589 9.92738 7.3159 9.80738 7.46391 9.80738C7.61192 9.80738 7.73193 9.92738 7.73193 10.0754C7.73193 10.2234 7.61192 10.3434 7.46391 10.3434ZM7.79793 12.5856C7.64992 12.5856 7.52991 12.4655 7.52991 12.3175C7.52991 12.1695 7.64992 12.0495 7.79793 12.0495C7.94594 12.0495 8.06595 12.1695 8.06595 12.3175C8.06595 12.4655 7.94594 12.5856 7.79793 12.5856ZM12.2002 12.0495C12.3482 12.0495 12.4682 12.1695 12.4682 12.3175C12.4682 12.4655 12.3482 12.5856 12.2002 12.5856C12.0522 12.5856 11.9322 12.4655 11.9322 12.3175C11.9322 12.1695 12.0522 12.0495 12.2002 12.0495ZM10.0001 13.7496C9.73205 13.7496 9.51404 13.5316 9.51404 13.2636C9.51404 12.9956 9.73205 12.7776 10.0001 12.7776C10.2681 12.7776 10.4861 12.9956 10.4861 13.2636C10.4861 13.5316 10.2681 13.7496 10.0001 13.7496ZM10.0001 6.40116C10.2681 6.40116 10.4861 6.61917 10.4861 6.88719C10.4861 7.15521 10.2681 7.37322 10.0001 7.37322C9.73205 7.37322 9.51404 7.15521 9.51404 6.88719C9.51204 6.61917 9.73205 6.40116 10.0001 6.40116Z" fill="#F2F2F7"/>
<path d="M18.4482 5.7136C18.4542 5.34758 18.2622 5.00756 17.9442 4.82355L10.5037 0.521274C10.1897 0.339263 9.80368 0.339263 9.48966 0.521274L2.03919 4.83555C1.72717 5.01756 1.53516 5.34958 1.53516 5.7116V14.4562C1.53516 14.8182 1.72717 15.1522 2.04119 15.3322L9.49166 19.6285C9.80368 19.8105 10.1897 19.8105 10.5017 19.6285L17.9522 15.3342C18.2662 15.1542 18.4582 14.8182 18.4582 14.4582L18.4482 5.7136ZM15.258 13.4881L10.2857 16.3563C10.1097 16.4563 9.89369 16.4563 9.71768 16.3563L4.74536 13.4881C4.56935 13.3861 4.46134 13.2001 4.46134 12.9961V7.1617C4.46134 6.95768 4.56935 6.77167 4.74336 6.66967L9.71768 3.78948C9.89369 3.68748 10.1097 3.68748 10.2857 3.78948L15.254 6.66166C15.432 6.76567 15.5401 6.95568 15.5361 7.1617V7.2177L15.5421 12.9981C15.5421 13.2001 15.434 13.3881 15.258 13.4881Z" fill="#F2F2F7"/>
</g>
<defs>
<clipPath id="clip0_1726_2550">
<rect width="20" height="20" fill="white"/>
</clipPath>
</defs>
</svg>
