<svg width="20" height="20" viewBox="0 0 20 20" fill="none" xmlns="http://www.w3.org/2000/svg">
<g clip-path="url(#clip0_919_2055)">
<g clip-path="url(#clip1_919_2055)">
<path d="M19.3973 6.4722C19.4038 6.07092 19.1933 5.69805 18.8446 5.49621L10.6857 0.778683C10.3413 0.578981 9.91804 0.578981 9.57385 0.778683L1.40429 5.50961C1.06199 5.70905 0.851562 6.07307 0.851562 6.47006V16.0587C0.851562 16.4557 1.06199 16.8219 1.40644 17.0194L6.57376 19.9991L8.28209 15.8713C8.32149 15.777 8.28209 15.6564 8.19497 15.603L7.8347 15.3824C7.76822 15.3419 7.67762 15.272 7.60685 15.2079C6.30678 14.3753 5.44444 12.9192 5.44444 11.2608C5.44444 8.67294 7.54252 6.57514 10.1301 6.57514C12.7176 6.57514 14.8154 8.67294 14.8154 11.2608C14.8154 12.9192 13.9531 14.3753 12.653 15.2079C12.5825 15.272 12.4919 15.3419 12.4257 15.3824L12.0654 15.603C11.9789 15.6564 11.9392 15.7767 11.9783 15.8713L13.6866 19.9997L18.8534 17.0216C19.1979 16.8243 19.4083 16.4557 19.4083 16.0608L19.3973 6.4722Z" fill="white"/>
</g>
</g>
<defs>
<clipPath id="clip0_919_2055">
<rect width="20" height="20" fill="white"/>
</clipPath>
<clipPath id="clip1_919_2055">
<rect width="18.5565" height="19.3706" fill="white" transform="translate(0.851562 0.628906)"/>
</clipPath>
</defs>
</svg>
