<?xml version="1.0" encoding="UTF-8"?><svg id="Layer_1" xmlns="http://www.w3.org/2000/svg" viewBox="0 0 747 791"><rect x="0" y="0" width="747" height="791" rx="43" ry="43" style="fill:#fff;"/><g id="Renode_RE"><path d="m594.12,368.79h-165.46c-1.18,0-2.22.76-2.57,1.89-2.55,8.02-6.72,15.44-12.23,21.8-4.89,5.48-10.7,10.07-17.16,13.56-1.33.73-1.81,2.41-1.07,3.73.48.88,1.4,1.42,2.4,1.42h196.31c1.51-.02,2.72-1.24,2.75-2.75v-36.94c-.02-1.5-1.24-2.7-2.75-2.7" style="fill:#007ef5;"/><path d="m603.86,490.82h-168.54c-1.05-.01-2.01.59-2.45,1.54-.46.92-.36,2.01.26,2.83l29.05,37.5c.51.67,1.3,1.06,2.15,1.07h139.54c.73,0,1.42-.3,1.93-.82.51-.51.78-1.21.77-1.93v-37.46c0-1.5-1.2-2.72-2.7-2.75" style="fill:#007ef5;"/><path d="m638.23,260.83h-20.12c-.36.02-.64.32-.64.69v3.35c0,.36.29.64.64.64h7.68v16.13c0,.36.29.64.64.64h3.48c.36,0,.64-.29.64-.64v-16.22h7.68c.36,0,.64-.29.64-.64v-3.35c.02-.36-.24-.66-.6-.69h-.04" style="fill:#007ef5;"/><path d="m671.65,260.83h-3.18c-.22,0-.43.12-.56.3l-9.57,14.93-9.61-14.93c-.12-.2-.33-.31-.56-.3h-3.18c-.36.02-.64.32-.64.69v20.12c0,.36.29.64.64.64h3.48c.36,0,.67-.28.69-.64v-11.2l7.42,11.54c.13.18.33.29.56.3h2.49c.22,0,.43-.12.56-.3l7.42-11.5v11.16c0,.36.29.64.64.64h3.39c.36,0,.64-.29.64-.64v-20.12c0-.36-.28-.67-.64-.69" style="fill:#007ef5;"/><path d="m394.77,280.53c2.75,1.41,5.42,2.99,7.98,4.72,6.69,4.55,12.4,10.39,16.82,17.16.49.8,1.37,1.29,2.32,1.29h181.76c1.49-.02,2.7-1.21,2.75-2.7v-37.42c0-1.51-1.23-2.75-2.75-2.75h-207.59c-1.51,0-2.75,1.23-2.75,2.75v14.72c0,1.03.55,1.97,1.46,2.45" style="fill:#007ef5;"/><path d="m317.7,420.62c-.35-.46-.46-1.07-.3-1.63.17-.57.6-1.01,1.16-1.2,13.31-4.05,25.31-11.54,34.8-21.71,11.63-13.26,17.51-30.81,17.51-52.18.23-12.37-2.15-24.66-6.99-36.04-4.88-10.95-12.71-20.32-22.61-27.08-11.42-7.5-24.18-12.72-37.59-15.36-16.95-3.38-34.21-4.96-51.49-4.72H119.17c-1.5.02-2.7,1.24-2.7,2.75v.82c-.01.76.3,1.5.86,2.02l39.26,36.64c.5.47,1.16.73,1.85.73h69.47c19.74,0,36.56.64,49.99,1.89,10.4.64,20.64,2.85,30.38,6.56,5.55,2.04,10.26,5.88,13.39,10.9,3.17,6.44,4.65,13.59,4.29,20.77.37,7.12-1.11,14.22-4.29,20.6-3.24,4.97-8.04,8.72-13.64,10.68-9.83,3.66-20.16,5.81-30.64,6.39-13.64,1.12-30.51,1.67-50.2,1.67h-68.91c-.53,0-1.05.15-1.5.43l-39.26,25.44c-.77.52-1.24,1.39-1.24,2.32v119.71c0,1.5,1.2,2.72,2.7,2.75h38.96c1.5-.02,2.7-1.24,2.7-2.75v-102.98c-.03-1,.76-1.82,1.76-1.85h105.38c.55,0,1.08.25,1.42.69l79.21,105.81c.51.7,1.33,1.11,2.19,1.12h49.13c1.04,0,1.99-.61,2.45-1.54.46-.94.35-2.06-.3-2.87l-84.14-108.77Z" style="fill:#007ef5;"/></g></svg>