<?xml version="1.0" encoding="utf-8"?>
<!-- Generator: Adobe Illustrator 27.9.0, SVG Export Plug-In . SVG Version: 6.00 Build 0)  -->
<svg version="1.1" id="Layer_1" xmlns="http://www.w3.org/2000/svg" xmlns:xlink="http://www.w3.org/1999/xlink" x="0px" y="0px"
	 viewBox="0 0 180 180" style="enable-background:new 0 0 180 180;" xml:space="preserve">
<style type="text/css">
	.st0{fill:#9352DB;}
	.st1{fill:#792DD3;}
	.st2{fill:#AF7EE3;}
	.st3{fill:url(#SVGID_1_);}
	.st4{fill:url(#SVGID_00000099632614568784625880000003732753096741406885_);}
	.st5{fill:url(#SVGID_00000038387580848691904990000014246538110572786311_);}
	.st6{fill:url(#SVGID_00000089566117280659448710000011617250713385444751_);}
	.st7{fill:url(#SVGID_00000013184162631221728910000006091029854156655773_);}
</style>
<g>
	<path class="st0" d="M107.7,56.7h40.6v39.4l-56.6,12.8L107.7,56.7z"/>
	<path class="st1" d="M88.6,121.5L78.1,115l13.6-6.2L88.6,121.5z"/>
	<path class="st0" d="M47.7,123.3l-3.5-11.9l14.7,5.6L47.7,123.3z"/>
	<path class="st2" d="M67.4,105.7L58.9,117l19.2-2L67.4,105.7z M44.2,111.4l2-13.3l-14.6,1.2L44.2,111.4z"/>
	
		<linearGradient id="SVGID_1_" gradientUnits="userSpaceOnUse" x1="107.7114" y1="117.0071" x2="148.3159" y2="117.0071" gradientTransform="matrix(1 0 0 -1 0 182)">
		<stop  offset="0" style="stop-color:#AEE2F9"/>
		<stop  offset="1" style="stop-color:#6CB2E4"/>
	</linearGradient>
	<path class="st3" d="M130.3,73.3l18.1-16.6h-40.6L130.3,73.3z"/>
	
		<linearGradient id="SVGID_00000059274933540145817480000016909504370582055075_" gradientUnits="userSpaceOnUse" x1="139.2847" y1="125.3316" x2="139.2847" y2="85.9377" gradientTransform="matrix(1 0 0 -1 0 182)">
		<stop  offset="0" style="stop-color:#1C9DF8"/>
		<stop  offset="1" style="stop-color:#9352DB"/>
	</linearGradient>
	<path style="fill:url(#SVGID_00000059274933540145817480000016909504370582055075_);" d="M148.3,56.7l-18.1,16.6l18.1,22.7V56.7z"
		/>
	
		<linearGradient id="SVGID_00000136401603311912898590000004686050277438947769_" gradientUnits="userSpaceOnUse" x1="91.6731" y1="90.9026" x2="148.3159" y2="90.9026" gradientTransform="matrix(1 0 0 -1 0 182)">
		<stop  offset="0" style="stop-color:#792DD3"/>
		<stop  offset="1" style="stop-color:#215AC9"/>
	</linearGradient>
	<path style="fill:url(#SVGID_00000136401603311912898590000004686050277438947769_);" d="M130.3,73.3l-38.6,35.6l56.6-12.8
		L130.3,73.3z"/>
	
		<linearGradient id="SVGID_00000132785125540931132340000013957979502812990851_" gradientUnits="userSpaceOnUse" x1="119.9945" y1="108.6827" x2="119.9945" y2="73.1224" gradientTransform="matrix(1 0 0 -1 0 182)">
		<stop  offset="0" style="stop-color:#3F49CC"/>
		<stop  offset="1" style="stop-color:#3F49CC;stop-opacity:0"/>
	</linearGradient>
	<path style="fill:url(#SVGID_00000132785125540931132340000013957979502812990851_);" d="M130.3,73.3l-38.6,35.6l56.6-12.8
		L130.3,73.3z"/>
	
		<linearGradient id="SVGID_00000002378293651011417750000009367035281602586294_" gradientUnits="userSpaceOnUse" x1="110.9633" y1="125.3316" x2="110.9633" y2="-6344.9536" gradientTransform="matrix(1 0 0 -1 0 182)">
		<stop  offset="0" style="stop-color:#1C9DF8"/>
		<stop  offset="1" style="stop-color:#9352DB"/>
	</linearGradient>
	<path style="fill:url(#SVGID_00000002378293651011417750000009367035281602586294_);" d="M130.3,73.3l-22.5-16.6l-16,52.2
		L130.3,73.3z"/>
</g>
</svg>
