<svg width="40" height="28" viewBox="0 0 40 28" fill="none" xmlns="http://www.w3.org/2000/svg">
<path fill-rule="evenodd" clip-rule="evenodd" d="M28.8 5.59995C28.8 2.50716 31.3072 -4.9971e-05 34.4 -4.98358e-05C37.4928 -4.97007e-05 40 2.50716 40 5.59995C40 8.69275 37.4928 11.2 34.4 11.2C33.3828 11.2 32.429 10.9287 31.6068 10.4547L24.5754 18.3703C25.2208 19.2829 25.6 20.3972 25.6 21.6C25.6 24.6927 23.0928 27.2 20 27.2C16.9072 27.2 14.4 24.6927 14.4 21.5999C14.4 20.4295 14.7591 19.3429 15.3731 18.4443L8.31517 10.4989C7.51094 10.9455 6.58518 11.1999 5.6 11.1999C2.50721 11.1999 8.08976e-07 8.69274 9.44166e-07 5.59995C1.07936e-06 2.50715 2.50721 -5.12299e-05 5.6 -5.10947e-05C8.6928 -5.09595e-05 11.2 2.50716 11.2 5.59995C11.2 6.82099 10.8092 7.95075 10.1459 8.87099L17.1631 16.7706C17.9951 16.2809 18.9647 15.9999 20 15.9999C20.9703 15.9999 21.8829 16.2467 22.6786 16.6809L29.7495 8.72079C29.1499 7.82903 28.8 6.75535 28.8 5.59995Z" fill="white"/>
</svg>
